<svg width="32" height="32" viewBox="0 0 32 32" fill="none" xmlns="http://www.w3.org/2000/svg">
  <rect width="32" height="32" rx="6" fill="#0EA5E9"/>
  <path d="M10 8H22V24C22 25.1046 21.1046 26 20 26H12C10.8954 26 10 25.1046 10 24V8Z" fill="white" fill-opacity="0.5"/>
  <path d="M14 12C14 12 13 14 13 15C13 16 14 16 14 17C14 18 13 20 13 20" stroke="white" stroke-width="1.5" stroke-linecap="round"/>
  <path d="M18 14C18 14 17 16 17 17C17 18 18 18 18 19C18 20 17 22 17 22" stroke="white" stroke-width="1.5" stroke-linecap="round"/>
  <path d="M8 9H24" stroke="white" stroke-width="1.5" stroke-linecap="round"/>
</svg>